<svg xmlns="http://www.w3.org/2000/svg" version="1.1" xmlns:xlink="http://www.w3.org/1999/xlink" viewBox="0 0 700 700" style="overflow: hidden; display: block;" width="700" height="700"><defs></defs><g id="two-0" transform="matrix(1 0 0 1 0 0)" opacity="1"><path transform="matrix(1 0 0 1 350 350)" id="two-38" d="M 133.777156 24.276974 C 168.378097 85.118461 347.528645 55.671963 322.514975 121.041895 C 296.392371 189.309882 146.899574 2.633886 108.298469 64.705323 C 79.650806 110.771401 210.820351 134.815189 216.104215 188.804567 C 217.875926 206.90753 206.463015 232.674902 188.709787 236.634588 C 149.920011 245.286274 125.13996 148.680052 90.118739 167.468679 C 55.396343 186.096989 130.536033 274.243097 93.198143 286.834391 C 57.421725 298.899116 60.4679 210.059701 26.283276 194.03094 C 15.768808 189.100832 2.651213 194.675607 -8.823202 196.463847 C -21.62943 198.459644 -35.545807 199.683658 -46.972554 205.800203 C -73.630984 220.070012 -88.734035 283.678813 -114.455699 267.782419 C -163.191946 237.66265 -20.417197 134.800026 -66.600108 100.89485 C -92.412011 81.945047 -118.104264 141.840575 -147.578591 154.355104 C -176.718641 166.727701 -219.218935 198.022759 -241.208836 175.248477 C -257.209573 158.676992 -236.118501 127.049312 -223.628453 107.693786 C -203.733673 76.863326 -127.543859 73.263289 -137.119938 37.842698 C -146.287215 3.934205 -218.138615 47.262468 -242.347765 21.811693 C -252.412452 11.230814 -255.634492 -10.57266 -246.81793 -22.214016 C -226.229979 -49.39827 -153.777701 -7.066286 -145.029581 -40.025621 C -135.589659 -75.59138 -244.007193 -76.809769 -230.878595 -111.185271 C -221.206948 -136.509203 -167.434941 -88.424416 -148.791065 -108.103036 C -136.810438 -120.748593 -168.268575 -151.24948 -153.615348 -160.669057 C -129.175508 -176.379792 -100.078768 -99.044169 -77.196314 -116.947417 C -25.936421 -157.053194 -189.347961 -277.67799 -131.077791 -306.671736 C -88.150641 -328.031187 -90.767563 -182.497635 -43.529349 -190.714536 C -10.148906 -196.520933 -46.79504 -290.637285 -12.966971 -288.732037 C 40.383794 -285.727242 -35.456265 -136.305561 17.57075 -129.712487 C 79.97222 -121.953848 38.553469 -322.141884 98.238385 -302.346662 C 160.35068 -281.746371 1.772624 -141.291914 58.188343 -108.132063 C 91.882467 -88.327439 113.530873 -204.071114 147.897004 -185.456979 C 166.550483 -175.353473 122.973482 -135.23253 139.346496 -121.743369 C 179.22668 -88.887463 250.98228 -208.255969 287.682135 -171.882075 C 305.662025 -154.061878 262.254233 -124.263104 263.767624 -98.993646 C 264.793808 -81.859209 292.468094 -67.661655 285.766192 -51.858919 C 265.261001 -3.508747 167.125183 -41.781503 135.305251 -0.000001 C 130.441701 6.386135 129.80885 17.299196 133.777156 24.276974 Z " fill="hsl(43, 74%, 49%)" stroke="undefined" stroke-width="1" stroke-opacity="1" fill-opacity="1" visibility="visible" stroke-linecap="butt" stroke-linejoin="miter" stroke-miterlimit="4"></path></g></svg>